<svg width="200" height="39" viewBox="0 0 200 39" fill="none" xmlns="http://www.w3.org/2000/svg">
<g clip-path="url(#clip0_12524_2033)">
<path d="M158.803 21.6852H169.907V16.1481H158.803V5.77339H168.296C168.296 5.77339 168.336 5.77339 168.359 5.77339C169.898 5.77339 171.142 4.53501 171.142 3.01154C171.142 1.48807 169.894 0.249692 168.359 0.249692V0.236328H155.845C154.175 0.236328 152.883 1.44798 152.883 3.00263V35.9845C152.883 37.5391 154.175 38.7508 155.845 38.7508H171.146V33.2137H158.808V21.6808L158.803 21.6852Z" fill="white"/>
<path d="M66.7543 21.81C70.1341 20.2019 72.2886 16.9856 72.2886 13.2482V10.032C72.2886 4.6865 67.679 0.378906 61.9607 0.378906H54.5862C52.9255 0.378906 51.6328 1.5861 51.6328 3.1363V38.9869H57.5351V22.9013H60.8565L66.5748 37.2095C67.2526 38.6439 68.8504 39.3344 70.3855 38.8176C71.9205 38.3009 72.7823 36.6928 72.1045 35.2584L66.7588 21.8144L66.7543 21.81ZM66.3863 13.2482C66.3863 15.5513 64.4204 17.3866 61.9607 17.3866H57.5351V5.8937H61.9607C64.4204 5.8937 66.3863 7.73344 66.3863 10.032V13.2482Z" fill="white"/>
<path d="M26.9837 16.4065C25.8571 16.7362 25.0312 17.7652 25.0312 18.9902C25.0312 20.2152 25.8571 21.2487 26.9837 21.5738V35.9845C26.9837 37.5391 28.2809 38.7508 29.9461 38.7508H45.7813V33.2137H32.9084V21.6808H42.4553V16.1437H32.9084V5.77339H45.7813V0.236328H26.9837V16.4065Z" fill="white"/>
<path d="M0.246864 34.8925C0.0628381 35.1821 0 35.583 0 35.9884C0 36.5096 0.184026 37.0263 0.493728 37.5475C1.10864 38.3538 1.90758 38.7547 2.95788 38.7547H18.9098L19.6908 33.2176H7.39245L20.4493 4.10237C20.6333 3.81282 20.6962 3.41191 20.6962 3.00654C20.6962 2.48535 20.5121 1.96862 20.2024 1.45188C19.5875 0.641148 18.7886 0.240234 17.7383 0.240234H2.95788C1.29267 0.240234 0 1.45188 0 3.01099C0 4.5701 1.29267 5.7773 2.95788 5.7773H13.3037L0.246864 34.8925Z" fill="white"/>
<path d="M88.4786 0.00976562C82.7514 0.00976562 78.1328 4.33518 78.1328 9.69406V29.2987C78.1328 34.6621 82.7514 38.9875 88.4786 38.9875C94.2059 38.9875 98.8245 34.6621 98.8245 29.2987V9.69851C98.829 4.33963 94.2104 0.00976562 88.4786 0.00976562ZM92.9132 29.3032C92.9132 31.6107 90.9428 33.4549 88.4786 33.4549C86.0145 33.4549 84.0441 31.6107 84.0441 29.3032V9.69851C84.0441 7.39103 86.0145 5.54683 88.4786 5.54683C90.9428 5.54683 92.9132 7.39103 92.9132 9.69851V29.3032Z" fill="white"/>
<path d="M120.133 18.0859H108.661C106.996 18.0859 105.703 19.2931 105.703 20.8522C105.703 22.4114 106.996 23.6185 108.661 23.6185H120.133C121.794 23.6185 123.091 22.4114 123.091 20.8522C123.091 19.2931 121.799 18.0859 120.133 18.0859Z" fill="white"/>
<path d="M182.419 1.56919C181.741 0.415455 180.506 -0.217098 179.093 0.067996C177.679 0.357545 176.812 1.45338 176.812 2.77639V36.217C176.812 37.7717 178.105 38.9833 179.77 38.9833C181.436 38.9833 182.728 37.7717 182.728 36.217V14.884C185.251 19.8999 188.209 25.4948 190.489 29.8781C191.844 32.4752 193.137 34.9519 194.371 37.4287C194.928 38.5824 196.279 39.215 197.697 38.9299C198.99 38.6403 200 37.549 200 36.2215V0.237271L194.088 0.250634V24.1094L182.423 1.56919H182.419Z" fill="white"/>
<path d="M144.999 0.249144V0.240234H125.766V5.7773H133.786V36.22C133.786 37.7791 135.084 38.9863 136.749 38.9863C138.414 38.9863 139.711 37.7791 139.711 36.22V5.7773H144.994C144.994 5.7773 144.994 5.7773 144.999 5.7773C146.538 5.7773 147.781 4.53892 147.781 3.01545C147.781 1.49198 146.534 0.253598 144.999 0.253598V0.249144Z" fill="white"/>
</g>
<defs>
<clipPath id="clip0_12524_2033">
<rect width="200" height="39" fill="white"/>
</clipPath>
</defs>
</svg>
